<?xml version="1.0" encoding="UTF-8"?>
<svg width="1024" height="1024" viewBox="0 0 1024 1024" fill="none" xmlns="http://www.w3.org/2000/svg">
  <g id="phone-handset" fill="#FFFFFF">
    <path d="M382.1 337.9C405.7 328 433.1 338.9 443.5 362.3L457.9 394.6C468 417.3 461.9 444 442.8 459.9L426 473.9C421.2 477.9 419.6 484.6 422.2 490.3C449.4 550.7 500.1 597.1 562.5 620.8C568.6 623.1 575.5 620.9 579.3 615.6L599.5 587.3C613.1 568.3 638.5 562.2 659.1 573.2L690 589.8C713.1 602.2 722.7 630.2 712.2 654.2L704.9 670.9C697.7 687.3 684.2 700 667.3 705.7C625.7 719.8 568 709.3 509.2 676.4C449.5 643 393.2 588.7 354.1 525.4C317.3 465.8 307.1 410.6 327.8 373C339.4 351.9 358.9 347.6 382.1 337.9Z"/>
  </g>
</svg>
