<?xml version="1.0" encoding="UTF-8"?>
<svg width="1024" height="1024" viewBox="0 0 1024 1024" fill="none" xmlns="http://www.w3.org/2000/svg">
  <g id="whatsapp-bubble-ring" fill="#FFFFFF">
    <path fill-rule="evenodd" clip-rule="evenodd" d="M516 145C326.7 145 172 299.7 172 489C172 546.4 186.2 601 211.7 649.2L163.3 856.4C161.7 863.4 168.2 869.5 175.1 867.5L356 816.1C403.9 842.1 458.7 857 516 857C705.3 857 860 702.3 860 513C860 497.5 858.9 481.9 856.8 466.8L793.1 471.9C795 485.2 796 498.9 796 513C796 667 670 793 516 793C467.2 793 421.2 780.5 381.3 758.4L359.5 746.4L250.6 777.3L281 647.2L271.6 629.7C249 587.7 236 539.8 236 489C236 334.9 361.9 209 516 209C564.5 209 610.1 221.3 649.8 243L679.8 186.5C631.2 160.2 575.5 145 516 145Z"/>
  </g>
</svg>
