<?xml version="1.0" encoding="UTF-8"?>
<svg width="1024" height="1024" viewBox="0 0 1024 1024" fill="none" xmlns="http://www.w3.org/2000/svg">
  <g id="archive-arrow-tray" fill="#FFFFFF">
    <path d="M745 190C755.5 190 764 198.5 764 209V270H792C797.6 270 802.6 273.4 804.8 278.6C806.9 283.7 805.7 289.7 801.7 293.6L755.6 339.7C749.8 345.6 740.2 345.6 734.4 339.7L688.3 293.6C684.3 289.7 683.1 283.7 685.2 278.6C687.4 273.4 692.4 270 698 270H726V209C726 198.5 734.5 190 745 190Z"/>
    <path fill-rule="evenodd" clip-rule="evenodd" d="M672 354C660.9 354 652 362.9 652 374V414C652 425.1 660.9 434 672 434H816C827.1 434 836 425.1 836 414V374C836 362.9 827.1 354 816 354H672ZM723 380C716.4 380 711 385.4 711 392C711 398.6 716.4 404 723 404H765C771.6 404 777 398.6 777 392C777 385.4 771.6 380 765 380H723Z"/>
  </g>
</svg>
